{
  "accessors": [
    {
      "bufferView": 2,
      "componentType": 5126,
      "count": 24568,
      "max": [
        4.407665252685547,
        4.059484958648682,
        0.6806961894035339
      ],
      "min": [
        -4.143883228302002,
        -3.5321924686431885,
        -7.191878318786621
      ],
      "type": "VEC3"
    },
    {
      "bufferView": 2,
      "byteOffset": 294816,
      "componentType": 5126,
      "count": 24568,
      "max": [
        0.999961793422699,
        0.9996299147605896,
        0.9996855854988098
      ],
      "min": [
        -0.9999665021896362,
        -0.9999434351921082,
        -0.9999622106552124
      ],
      "type": "VEC3"
    },
    {
      "bufferView": 1,
      "componentType": 5126,
      "count": 24568,
      "max": [
        1.0,
        1.0000001192092896
      ],
      "min": [
        -5.2192583098076284e-05,
        0.0
      ],
      "type": "VEC2"
    },
    {
      "bufferView": 0,
      "componentType": 5125,
      "count": 36852,
      "type": "SCALAR"
    },
    {
      "bufferView": 2,
      "byteOffset": 589632,
      "componentType": 5126,
      "count": 3071,
      "max": [
        4.403172016143799,
        4.054830551147461,
        0.6761028170585632
      ],
      "min": [
        -4.139228820800781,
        -3.5281260013580322,
        -7.187462329864502
      ],
      "type": "VEC3"
    },
    {
      "bufferView": 2,
      "byteOffset": 626484,
      "componentType": 5126,
      "count": 3071,
      "max": [
        0.9938784837722778,
        0.9967724680900574,
        0.9999414086341858
      ],
      "min": [
        -0.9959151744842529,
        -0.9904206991195679,
        -0.9987794756889343
      ],
      "type": "VEC3"
    },
    {
      "bufferView": 1,
      "byteOffset": 196544,
      "componentType": 5126,
      "count": 3071,
      "max": [
        1.0,
        1.0000001192092896
      ],
      "min": [
        -5.2192583098076284e-05,
        0.0
      ],
      "type": "VEC2"
    },
    {
      "bufferView": 0,
      "byteOffset": 147408,
      "componentType": 5125,
      "count": 3153,
      "type": "SCALAR"
    },
    {
      "bufferView": 2,
      "byteOffset": 663336,
      "componentType": 5126,
      "count": 28886,
      "max": [
        4.466958045959473,
        4.118616580963135,
        0.7398888468742371
      ],
      "min": [
        -4.203015327453613,
        -3.591912269592285,
        -7.251248359680176
      ],
      "type": "VEC3"
    },
    {
      "bufferView": 2,
      "byteOffset": 1009968,
      "componentType": 5126,
      "count": 28886,
      "max": [
        1.0,
        1.0,
        1.0
      ],
      "min": [
        -1.0,
        -1.0,
        -1.0
      ],
      "type": "VEC3"
    },
    {
      "bufferView": 0,
      "byteOffset": 160020,
      "componentType": 5125,
      "count": 159984,
      "type": "SCALAR"
    }
  ],
  "asset": {
    "extras": {
      "author": "tkkjee (https://sketchfab.com/tkkjee)",
      "license": "CC-BY-4.0 (http://creativecommons.org/licenses/by/4.0/)",
      "source": "https://sketchfab.com/3d-models/hud-brain-hologram-25ed09ee28404810a009df6f4b3a5fda",
      "title": "HUD Brain Hologram"
    },
    "generator": "Sketchfab-16.16.0",
    "version": "2.0"
  },
  "bufferViews": [
    {
      "buffer": 0,
      "byteLength": 799956,
      "name": "floatBufferViews",
      "target": 34963
    },
    {
      "buffer": 0,
      "byteLength": 221112,
      "byteOffset": 799956,
      "byteStride": 8,
      "name": "floatBufferViews",
      "target": 34962
    },
    {
      "buffer": 0,
      "byteLength": 1356600,
      "byteOffset": 1021068,
      "byteStride": 12,
      "name": "floatBufferViews",
      "target": 34962
    }
  ],
  "buffers": [
    {
      "byteLength": 2377668,
      "uri": "scene.bin"
    }
  ],
  "extensionsUsed": [
    "KHR_materials_emissive_strength",
    "KHR_materials_transmission",
    "KHR_materials_specular"
  ],
  "materials": [
    {
      "doubleSided": true,
      "emissiveFactor": [
        1.0,
        1.0,
        1.0
      ],
      "extensions": {
        "KHR_materials_emissive_strength": {
          "emissiveStrength": 4.198012192794832
        }
      },
      "name": "Material.001",
      "pbrMetallicRoughness": {
        "baseColorFactor": [
          0.8,
          0.8,
          0.8,
          1.0
        ],
        "metallicFactor": 0.0
      }
    },
    {
      "alphaMode": "BLEND",
      "extensions": {
        "KHR_materials_specular": {
          "specularColorFactor": [
            1.0,
            1.0,
            1.0
          ],
          "specularFactor": 1.0
        },
        "KHR_materials_transmission": {
          "transmissionFactor": 0.10757123975488014
        }
      },
      "name": "Material.002",
      "pbrMetallicRoughness": {
        "baseColorFactor": [
          0.005094923227408258,
          0.007281563480063311,
          0.013726742946845815,
          0.8924287602451199
        ],
        "roughnessFactor": 0.6324870155143368
      }
    }
  ],
  "meshes": [
    {
      "name": "Object_0",
      "primitives": [
        {
          "attributes": {
            "NORMAL": 1,
            "POSITION": 0,
            "TEXCOORD_0": 2
          },
          "indices": 3,
          "material": 0,
          "mode": 4
        }
      ]
    },
    {
      "name": "Object_1",
      "primitives": [
        {
          "attributes": {
            "NORMAL": 5,
            "POSITION": 4,
            "TEXCOORD_0": 6
          },
          "indices": 7,
          "material": 1,
          "mode": 4
        }
      ]
    },
    {
      "name": "Object_2",
      "primitives": [
        {
          "attributes": {
            "NORMAL": 9,
            "POSITION": 8
          },
          "indices": 10,
          "material": 0,
          "mode": 4
        }
      ]
    }
  ],
  "nodes": [
    {
      "children": [
        1
      ],
      "matrix": [
        1.0,
        0.0,
        0.0,
        0.0,
        0.0,
        2.220446049250313e-16,
        -1.0,
        0.0,
        0.0,
        1.0,
        2.220446049250313e-16,
        0.0,
        0.0,
        0.0,
        0.0,
        1.0
      ],
      "name": "Sketchfab_model"
    },
    {
      "children": [
        2
      ],
      "name": "root"
    },
    {
      "children": [
        3
      ],
      "matrix": [
        1.0,
        0.0,
        0.0,
        0.0,
        0.0,
        2.220446049250313e-16,
        1.0,
        0.0,
        0.0,
        -1.0,
        2.220446049250313e-16,
        0.0,
        0.0,
        0.0,
        0.0,
        1.0
      ],
      "name": "GLTF_SceneRootNode"
    },
    {
      "children": [
        4,
        6,
        8
      ],
      "matrix": [
        4.542395114898682,
        0.0,
        0.0,
        0.0,
        0.0,
        4.542395114898682,
        0.0,
        0.0,
        0.0,
        0.0,
        4.542395114898682,
        0.0,
        0.0,
        0.0,
        0.0,
        1.0
      ],
      "name": "Empty.001_3"
    },
    {
      "children": [
        5
      ],
      "matrix": [
        0.15577757358551025,
        0.0,
        0.0,
        0.0,
        0.0,
        0.15577757358551025,
        0.0,
        0.0,
        0.0,
        0.0,
        0.15577755868434906,
        0.0,
        0.0,
        0.1529267132282257,
        0.5143352746963501,
        1.0
      ],
      "name": "BezierCurve.001_0"
    },
    {
      "mesh": 0,
      "name": "Object_5"
    },
    {
      "children": [
        7
      ],
      "matrix": [
        0.15577757358551025,
        0.0,
        0.0,
        0.0,
        0.0,
        0.15577757358551025,
        0.0,
        0.0,
        0.0,
        0.0,
        0.15577755868434906,
        0.0,
        0.0,
        0.1529267132282257,
        0.5143352746963501,
        1.0
      ],
      "name": "BezierCurve.002_1"
    },
    {
      "mesh": 1,
      "name": "Object_7"
    },
    {
      "children": [
        9
      ],
      "matrix": [
        0.15577757358551025,
        0.0,
        0.0,
        0.0,
        0.0,
        0.15577757358551025,
        0.0,
        0.0,
        0.0,
        0.0,
        0.15577755868434906,
        0.0,
        0.0,
        0.1529267132282257,
        0.5143352746963501,
        1.0
      ],
      "name": "BezierCurve.003_2"
    },
    {
      "mesh": 2,
      "name": "Object_9"
    }
  ],
  "scene": 0,
  "scenes": [
    {
      "name": "Sketchfab_Scene",
      "nodes": [
        0
      ]
    }
  ]
}
